<svg width="279" height="279" viewBox="0 0 279 279" fill="none" xmlns="http://www.w3.org/2000/svg">
<circle cx="139.5" cy="139.5" r="95.5" fill="url(#paint0_linear_68_1083)"/>
<path d="M72.65 79.4546H96.525L139.5 44L182.475 79.4546H206.35L235 122H44L72.65 79.4546Z" fill="white"/>
<path d="M279 139.5C279 216.544 216.544 279 139.5 279C62.4563 279 0 216.544 0 139.5C0 62.4563 62.4563 0 139.5 0C216.544 0 279 62.4563 279 139.5ZM43.8249 139.5C43.8249 192.34 86.6601 235.175 139.5 235.175C192.34 235.175 235.175 192.34 235.175 139.5C235.175 86.6601 192.34 43.8249 139.5 43.8249C86.6601 43.8249 43.8249 86.6601 43.8249 139.5Z" fill="#0D4869"/>
<path d="M135 70C132.111 70 129.25 70.5561 126.581 71.6366C123.912 72.7171 121.487 74.3007 119.444 76.2972C117.401 78.2937 115.78 80.6638 114.675 83.2723C113.569 85.8808 113 88.6766 113 91.5L135 91.5L135 70Z" fill="#0D4869"/>
<path d="M144 70C146.889 70 149.75 70.5561 152.419 71.6366C155.088 72.7171 157.513 74.3007 159.556 76.2972C161.599 78.2937 163.22 80.6638 164.325 83.2723C165.431 85.8808 166 88.6766 166 91.5L144 91.5L144 70Z" fill="#0D4869"/>
<rect x="144" y="100" width="22" height="22" fill="#0D4869"/>
<rect x="113" y="100" width="22" height="22" fill="#0D4869"/>
<ellipse cx="139.5" cy="148" rx="13.5" ry="13" fill="#0D4869"/>
<rect x="135" y="153" width="9" height="21" rx="4.5" fill="#0D4869"/>
<path d="M99.641 197.715C156.19 232.612 203.214 203.376 171.426 217.333C137.652 229.297 115.048 224.086 92.7296 212.612C68.5214 197.06 54.1735 169.035 69.2097 136.625C83.0327 106.83 49.3347 162.531 99.641 197.715Z" fill="#0D4869"/>
<defs>
<linearGradient id="paint0_linear_68_1083" x1="139.5" y1="44" x2="139.5" y2="235" gradientUnits="userSpaceOnUse">
<stop offset="0.398664" stop-color="#0D4869"/>
<stop offset="0.408244" stop-color="#FEFEFE"/>
</linearGradient>
</defs>
</svg>
